HIERARCHY
ROOT Hips
{
    OFFSET 0.000000 0.000000 0.000000
    CHANNELS 6 Xposition Yposition Zposition Zrotation Xrotation Yrotation
    JOINT Spine
    {
        OFFSET -0.000000 7.236184 0.000000
        CHANNELS 3 Zrotation Xrotation Yrotation
        JOINT Spine1
        {
            OFFSET -0.000000 20.420147 0.000000
            CHANNELS 3 Zrotation Xrotation Yrotation
            JOINT Neck
            {
                OFFSET -0.000000 20.336288 1.848754
                CHANNELS 3 Zrotation Xrotation Yrotation
                JOINT Head
                {
                    OFFSET -0.000000 12.354461 -1.764923
                    CHANNELS 3 Zrotation Xrotation Yrotation
                    End Site
                    {
                        OFFSET -0.000000 22.061537 0.000000
                    }
                }
            }
            JOINT LeftShoulder
            {
                OFFSET 3.573296 18.396038 -0.314103
                CHANNELS 3 Zrotation Xrotation Yrotation
                JOINT LeftArm
                {
                    OFFSET 10.880760 0.000000 0.000000
                    CHANNELS 3 Zrotation Xrotation Yrotation
                    JOINT LeftForeArm
                    {
                        OFFSET 27.185530 0.000000 0.000000
                        CHANNELS 3 Zrotation Xrotation Yrotation
                        JOINT LeftHand
                        {
                            OFFSET 27.825975 0.000000 0.000000
                            CHANNELS 3 Zrotation Xrotation Yrotation
                            End Site
                            {
                                OFFSET 13.236923 0.000000 0.000000
                            }
                        }
                    }
                }
            }
            JOINT RightShoulder
            {
                OFFSET -3.474926 18.396038 -0.314103
                CHANNELS 3 Zrotation Xrotation Yrotation
                JOINT RightArm
                {
                    OFFSET -10.880760 0.000000 0.000000
                    CHANNELS 3 Zrotation Xrotation Yrotation
                    JOINT RightForeArm
                    {
                        OFFSET -27.185530 0.000000 0.000000
                        CHANNELS 3 Zrotation Xrotation Yrotation
                        JOINT RightHand
                        {
                            OFFSET -27.825975 0.000000 0.000000
                            CHANNELS 3 Zrotation Xrotation Yrotation
                            End Site
                            {
                                OFFSET -13.236923 0.000000 0.000000
                            }
                        }
                    }
                }
            }
        }
    }
    JOINT LeftUpLeg
    {
        OFFSET 8.824615 0.000000 0.000000
        CHANNELS 3 Zrotation Xrotation Yrotation
        JOINT LeftLeg
        {
            OFFSET -0.000000 -35.111282 0.000000
            CHANNELS 3 Zrotation Xrotation Yrotation
            JOINT LeftFoot
            {
                OFFSET -0.000000 -42.324711 0.000000
                CHANNELS 3 Zrotation Xrotation Yrotation
                JOINT LeftToeBase
                {
                    OFFSET -0.000000 -5.735999 13.236923
                    CHANNELS 3 Zrotation Xrotation Yrotation
                    End Site
                    {
                        OFFSET -0.000000 0.000000 3.529846
                    }
                }
            }
        }
    }
    JOINT RightUpLeg
    {
        OFFSET -8.824615 0.000000 0.000000
        CHANNELS 3 Zrotation Xrotation Yrotation
        JOINT RightLeg
        {
            OFFSET -0.000000 -35.111282 0.000000
            CHANNELS 3 Zrotation Xrotation Yrotation
            JOINT RightFoot
            {
                OFFSET -0.000000 -42.324711 0.000000
                CHANNELS 3 Zrotation Xrotation Yrotation
                JOINT RightToeBase
                {
                    OFFSET -0.000000 -5.735999 13.236923
                    CHANNELS 3 Zrotation Xrotation Yrotation
                    End Site
                    {
                        OFFSET -0.000000 0.000000 3.529846
                    }
                }
            }
        }
    }
}
MOTION
Frames:    5
Frame Time:    0.008333
-0.855120    82.920799    97.804367    0.997329    -11.791132    -165.211426    -3.103734    -16.060852    -1.294449    2.801352    6.399421    -1.013147    0.903911    6.824962    -1.479179    1.581755    -16.591011    -1.170017    -1.683667    17.579269    0.339680    -47.985512    42.392921    -37.721764    2.501897    -2.142570    -18.787247    17.784344    -1.493045    1.507653    7.666269    19.598038    -5.799988    45.356598    44.373898    31.154531    0.348869    -15.031499    14.411186    -15.088503    -14.452399    -4.851611    3.583418    -22.953953    0.810334    -2.914411    20.528318    18.192118    -4.373503    -5.542881    -11.600945    -0.014019    -0.327810    0.015549    -3.576832    -5.099737    -0.509039    2.938853    3.318758    -1.318609    -2.441571    -7.769957    -15.459748    -1.131364    -3.048899    1.228920    
-0.897294    82.921074    97.801300    1.060946    -11.828818    -165.112823    -3.059773    -16.028149    -1.169444    2.828554    6.353998    -0.895633    0.776191    6.628351    -1.536124    1.549685    -16.534842    -1.229267    -1.635661    17.554052    0.528245    -48.888641    42.113400    -36.795502    2.416193    -2.646940    -18.936346    18.038778    -2.028466    1.360641    7.589678    19.613464    -5.694104    45.607536    43.858181    31.067265    0.476067    -15.724294    14.770200    -15.230989    -15.107965    -5.239632    3.551482    -23.142332    0.857593    -2.884967    20.759434    18.130873    -4.295531    -5.594351    -11.578882    -0.024195    -0.386448    0.026838    -3.537498    -5.152028    -0.819566    2.891901    3.351783    -1.426257    -2.354892    -7.783453    -15.185663    -1.141273    -3.066776    1.239715    
-0.939658    82.921295    97.798050    1.124668    -11.865918    -165.013748    -3.015258    -15.996037    -1.043368    2.854375    6.309203    -0.777071    0.647319    6.434311    -1.594180    1.518691    -16.479853    -1.288781    -1.589644    17.530655    0.717750    -49.774487    41.811726    -35.871319    2.319853    -3.171160    -19.095491    18.294510    -2.582290    1.238124    7.512290    19.627886    -5.587967    45.851326    43.342396    30.985903    0.609272    -16.424398    15.140194    -15.389849    -15.770726    -5.630046    3.519082    -23.330307    0.904377    -2.855998    20.990818    18.073273    -4.217149    -5.645484    -11.557494    -0.034564    -0.446045    0.038344    -3.498501    -5.204591    -1.129115    2.845018    3.386425    -1.530423    -2.269220    -7.796448    -14.916578    -1.151192    -3.084662    1.250522    
-0.982664    82.921387    97.794403    1.188813    -11.902257    -164.913208    -2.969512    -15.964378    -0.914795    2.877730    6.264541    -0.655961    0.517542    6.241787    -1.653961    1.488558    -16.424799    -1.349257    -1.544695    17.509277    0.909385    -50.649670    41.490078    -34.943615    2.211488    -3.715227    -19.262896    18.552008    -3.154950    1.138564    7.432821    19.640160    -5.480731    46.088451    42.823841    30.912502    0.747593    -17.131401    15.529298    -15.568274    -16.439909    -6.023757    3.485913    -23.518736    0.950485    -2.828854    21.224060    18.023020    -4.137243    -5.696196    -11.537368    -0.044812    -0.507641    0.049718    -3.459815    -5.258163    -1.439037    2.798000    3.425061    -1.629111    -2.182742    -7.809767    -14.654234    -1.161125    -3.103166    1.261345    
-1.026625    82.921265    97.790176    1.253589    -11.937556    -164.810364    -2.921922    -15.932929    -0.782775    2.897372    6.219403    -0.531190    0.387109    6.050433    -1.716044    1.460049    -16.368601    -1.411089    -1.500519    17.490820    1.103842    -51.518272    41.149403    -34.009567    2.090324    -4.277158    -19.435877    18.810658    -3.744814    1.060409    7.350399    19.648521    -5.371720    46.318962    42.301983    30.848427    0.889879    -17.842836    15.944912    -15.768749    -17.112722    -6.420585    3.451950    -23.707954    0.995354    -2.805242    21.460270    17.984024    -4.055109    -5.746464    -11.518970    -0.055122    -0.572754    0.061164    -3.421621    -5.313241    -1.749245    2.751128    3.469601    -1.719915    -2.097274    -7.823320    -14.402376    -1.171148    -3.122216    1.272269    
